<svg xmlns="http://www.w3.org/2000/svg" width="51" height="66" viewBox="0 0 51 66" fill="none">
  <g clip-path="url(#clip0_1127_17)">
    <path d="M16.5671 50.532C16.5671 50.532 14.0171 51.9782 18.381 52.4657C19.9782 52.6959 21.8227 52.8286 23.6949 52.8286C26.706 52.8286 29.6338 52.4901 32.4421 51.8455L32.1838 51.8943C33.2227 52.5118 34.431 53.0995 35.6893 53.5843L35.8532 53.6384C22.8032 59.093 6.31711 53.3215 16.5699 50.5293L16.5671 50.532ZM14.9727 43.4145C14.9727 43.4145 12.1143 45.4782 16.4782 45.917C18.3866 46.1499 20.5949 46.2853 22.8366 46.2853C26.8949 46.2853 30.8477 45.8465 34.6477 45.0178L34.2893 45.0828C35.0532 45.7815 35.9671 46.3368 36.9782 46.697L37.0338 46.7132C21.256 51.2118 3.67822 47.068 14.9727 43.4145ZM28.4143 31.3407C31.631 34.9509 27.5699 38.1982 27.5699 38.1982C27.5699 38.1982 35.7338 34.0815 31.9866 28.9411C28.4838 24.142 25.7977 21.7559 40.3366 13.5361C40.3366 13.5361 17.5143 19.0936 28.4143 31.3407Z" fill="url(#paint0_linear_1127_17)"/>
    <path d="M45.6753 55.7968C45.6753 55.7968 47.5586 57.3135 43.6002 58.4835C36.0669 60.7098 12.2475 61.3814 5.62803 58.5729C3.25025 57.5627 7.71136 56.1625 9.11136 55.87C9.75581 55.7102 10.4975 55.6181 11.2614 55.6181H11.4197H11.4114C8.76692 53.8008 -5.68586 59.1877 4.07803 60.726C30.6864 64.9348 52.5836 58.8302 45.6836 55.7968H45.6753ZM17.7919 36.0396C17.7919 36.0396 5.67525 38.8454 13.5002 39.8637C15.6086 40.0343 18.0669 40.1291 20.5447 40.1291C23.7086 40.1291 26.8336 39.9721 29.9114 39.666L29.5252 39.6985C34.5391 39.2868 39.5752 38.3985 39.5752 38.3985C38.3947 38.9023 37.3947 39.4331 36.4475 40.0371L36.528 39.9883C24.2225 43.1435 0.455807 41.6756 7.29747 38.4473C10.3141 36.9225 13.8864 36.0287 17.6697 36.0287H17.7975H17.7919V36.0396ZM39.5252 47.8885C52.0308 41.551 46.2502 35.4627 42.2114 36.2806C41.6586 36.3808 41.178 36.5108 40.7141 36.676L40.778 36.6571C41.0419 36.2941 41.4058 36.0152 41.8308 35.8581L41.8475 35.8527C49.8308 33.1173 55.9752 43.9262 39.2697 48.2027C39.3725 48.1133 39.4558 48.0077 39.5169 47.8912L39.5197 47.8858L39.5252 47.8885ZM31.9864 0.262474C31.9864 0.262474 38.9141 7.01706 25.4141 17.4062C14.5919 25.7398 22.9447 30.4902 25.4141 35.9204C19.0975 30.3629 14.4614 25.4716 17.5697 20.9162C22.1364 14.2321 34.7836 10.9929 31.9864 0.259766V0.262474Z" fill="url(#paint1_linear_1127_17)"/>
    <path d="M19.0224 65.0594C31.0224 65.8096 49.4669 64.6423 49.9113 59.1064C49.9113 59.1064 49.0724 61.2054 39.9891 62.8737C34.9724 63.7567 29.1974 64.2604 23.3002 64.2604C18.4696 64.2604 13.7224 63.9219 9.0752 63.2692L9.60575 63.3314C9.60575 63.3314 11.1419 64.5719 19.0308 65.0648L19.0224 65.0594Z" fill="url(#paint2_linear_1127_17)"/>
  </g>
  <defs>
    <linearGradient id="paint0_linear_1127_17" x1="25.8602" y1="13.5361" x2="25.8602" y2="55.9001" gradientUnits="userSpaceOnUse">
      <stop stop-color="#40D8AB"/>
      <stop offset="1" stop-color="#35A8E1"/>
    </linearGradient>
    <linearGradient id="paint1_linear_1127_17" x1="25.2983" y1="0.259766" x2="25.2983" y2="62.1593" gradientUnits="userSpaceOnUse">
      <stop stop-color="#40D8AB"/>
      <stop offset="1" stop-color="#35A8E1"/>
    </linearGradient>
    <linearGradient id="paint2_linear_1127_17" x1="29.4933" y1="59.1064" x2="29.4933" y2="65.2639" gradientUnits="userSpaceOnUse">
      <stop stop-color="#40D8AB"/>
      <stop offset="1" stop-color="#35A8E1"/>
    </linearGradient>
    <clipPath id="clip0_1127_17">
      <rect width="50" height="65" fill="white" transform="translate(0.730957 0.262695)"/>
    </clipPath>
  </defs>
</svg>