<svg xmlns="http://www.w3.org/2000/svg" width="61" height="61" viewBox="0 0 61 61" fill="none">
  <g clip-path="url(#clip0_1127_90)">
    <path d="M30.2266 50.2627C13.4041 50.2627 0.226562 42.5752 0.226562 32.7627C0.226562 22.9502 13.4041 15.2627 30.2266 15.2627C47.0491 15.2627 60.2266 22.9502 60.2266 32.7627C60.2266 42.5752 47.0491 50.2627 30.2266 50.2627ZM30.2266 17.7627C15.0641 17.7627 2.72656 24.4902 2.72656 32.7627C2.72656 41.0352 15.0641 47.7627 30.2266 47.7627C45.3891 47.7627 57.7266 41.0352 57.7266 32.7627C57.7266 24.4902 45.3891 17.7627 30.2266 17.7627Z" fill="url(#paint0_linear_1127_90)"/>
    <path d="M13.979 43.7255C13.7973 43.7258 13.6178 43.6865 13.4529 43.6103C13.2879 43.5341 13.1416 43.4229 13.0241 43.2844C12.9065 43.1459 12.8206 42.9835 12.7722 42.8084C12.7238 42.6333 12.7142 42.4497 12.744 42.2705L13.569 37.3205C13.5734 37.287 13.5792 37.2536 13.5865 37.2205L15.244 27.273C15.292 26.9807 15.4422 26.7149 15.668 26.5231C15.8937 26.3312 16.1802 26.2258 16.4765 26.2255H19.904C21.284 26.2255 22.5815 26.8355 23.464 27.898C24.349 28.9605 24.709 30.348 24.454 31.708L23.969 34.298C23.7358 35.542 23.0752 36.6653 22.1015 37.4738C21.1277 38.2823 19.9021 38.7251 18.6365 38.7255H15.869L15.209 42.6805C15.1605 42.972 15.0104 43.2369 14.7852 43.4282C14.5601 43.6195 14.2744 43.7248 13.979 43.7255ZM16.2865 36.2255H18.6365C20.0415 36.2255 21.2515 35.223 21.5115 33.838L21.9965 31.2505C22.0541 30.9429 22.0433 30.6263 21.9648 30.3233C21.8863 30.0203 21.7421 29.7383 21.5424 29.4973C21.3426 29.2563 21.0923 29.0623 20.8092 28.9289C20.526 28.7955 20.217 28.7261 19.904 28.7255H17.5365L16.2865 36.2255ZM39.604 43.7255C39.4223 43.7258 39.2428 43.6865 39.0779 43.6103C38.9129 43.5341 38.7666 43.4229 38.6491 43.2844C38.5315 43.1459 38.4456 42.9835 38.3972 42.8084C38.3488 42.6333 38.3392 42.4497 38.369 42.2705L39.194 37.3205C39.1984 37.287 39.2042 37.2536 39.2115 37.2205L40.869 27.273C40.917 26.9807 41.0672 26.7149 41.293 26.5231C41.5187 26.3312 41.8052 26.2258 42.1015 26.2255H45.529C46.909 26.2255 48.2065 26.8355 49.089 27.898C49.974 28.9605 50.334 30.348 50.079 31.708L49.594 34.298C49.3608 35.542 48.7002 36.6653 47.7265 37.4738C46.7528 38.2823 45.5271 38.7251 44.2615 38.7255H41.494L40.834 42.6805C40.7855 42.972 40.6354 43.2369 40.4102 43.4282C40.1851 43.6195 39.8994 43.7248 39.604 43.7255ZM41.9115 36.2255H44.2615C45.6665 36.2255 46.8765 35.223 47.1365 33.838L47.6215 31.2505C47.6791 30.9429 47.6683 30.6263 47.5898 30.3233C47.5113 30.0203 47.3671 29.7383 47.1674 29.4973C46.9676 29.2563 46.7173 29.0623 46.4342 28.9289C46.151 28.7955 45.842 28.7261 45.529 28.7255H43.1615L41.9115 36.2255ZM27.729 38.7255C27.5473 38.7258 27.3678 38.6865 27.2029 38.6103C27.0379 38.5341 26.8916 38.4229 26.7741 38.2844C26.6565 38.1459 26.5705 37.9835 26.5222 37.8084C26.4738 37.6333 26.4642 37.4497 26.494 37.2705L28.994 22.2705C29.0569 21.9517 29.2416 21.6699 29.5088 21.4849C29.776 21.3 30.1048 21.2263 30.4254 21.2796C30.746 21.333 31.0332 21.5091 31.2262 21.7706C31.4191 22.0321 31.5026 22.3585 31.459 22.6805L28.959 37.6805C28.9105 37.972 28.7604 38.2369 28.5352 38.4282C28.3101 38.6195 28.0244 38.7248 27.729 38.7255Z" fill="url(#paint1_linear_1127_90)"/>
    <path d="M35.1041 38.5127C34.9249 38.513 34.7478 38.4749 34.5847 38.4008C34.4216 38.3267 34.2764 38.2184 34.1588 38.0832C34.0412 37.9481 33.954 37.7893 33.9032 37.6175C33.8523 37.4458 33.839 37.2651 33.8641 37.0877L34.7616 30.7927C34.7802 30.6649 34.7712 30.5346 34.735 30.4107C34.6988 30.2867 34.6364 30.172 34.552 30.0743C34.4676 29.9766 34.3631 29.8982 34.2457 29.8444C34.1283 29.7906 34.0007 29.7628 33.8716 29.7627H29.4766C29.145 29.7627 28.8271 29.631 28.5927 29.3966C28.3583 29.1622 28.2266 28.8442 28.2266 28.5127C28.2266 28.1812 28.3583 27.8632 28.5927 27.6288C28.8271 27.3944 29.145 27.2627 29.4766 27.2627H33.8716C34.359 27.2627 34.8408 27.3676 35.2842 27.5701C35.7275 27.7727 36.1222 28.0682 36.4413 28.4367C36.7605 28.8052 36.9967 29.2379 37.1339 29.7057C37.2711 30.1734 37.3061 30.6652 37.2366 31.1477L36.3391 37.4402C36.2964 37.7375 36.1481 38.0095 35.9213 38.2065C35.6945 38.4034 35.4044 38.5121 35.1041 38.5127Z" fill="url(#paint2_linear_1127_90)"/>
  </g>
  <defs>
    <linearGradient id="paint0_linear_1127_90" x1="30.2266" y1="15.2627" x2="30.2266" y2="50.2627" gradientUnits="userSpaceOnUse">
      <stop stop-color="#40D8AB"/>
      <stop offset="1" stop-color="#35A8E1"/>
    </linearGradient>
    <linearGradient id="paint1_linear_1127_90" x1="31.4431" y1="21.2627" x2="31.4431" y2="43.7255" gradientUnits="userSpaceOnUse">
      <stop stop-color="#40D8AB"/>
      <stop offset="1" stop-color="#35A8E1"/>
    </linearGradient>
    <linearGradient id="paint2_linear_1127_90" x1="32.7489" y1="27.2627" x2="32.7489" y2="38.5127" gradientUnits="userSpaceOnUse">
      <stop stop-color="#40D8AB"/>
      <stop offset="1" stop-color="#35A8E1"/>
    </linearGradient>
    <clipPath id="clip0_1127_90">
      <rect width="60" height="60" fill="white" transform="translate(0.226562 0.262695)"/>
    </clipPath>
  </defs>
</svg>