<svg xmlns="http://www.w3.org/2000/svg" width="51" height="49" viewBox="0 0 51 49" fill="none">
  <mask id="mask0_1127_27" style="mask-type:alpha" maskUnits="userSpaceOnUse" x="0" y="0" width="49" height="49">
    <path d="M11.431 48.2628C17.6165 48.2628 22.631 43.2484 22.631 37.0628C22.631 30.8772 17.6165 25.8628 11.431 25.8628C5.24537 25.8628 0.230957 30.8772 0.230957 37.0628C0.230957 43.2484 5.24537 48.2628 11.431 48.2628Z" fill="url(#paint0_linear_1127_27)"/>
    <path d="M46.2305 22.2627H28.2305C27.0305 22.2627 26.2305 21.4627 26.2305 20.2627V2.2627C26.2305 1.0627 27.0305 0.262695 28.2305 0.262695H46.2305C47.4305 0.262695 48.2305 1.0627 48.2305 2.2627V20.2627C48.2305 21.4627 47.4305 22.2627 46.2305 22.2627Z" fill="url(#paint1_linear_1127_27)"/>
    <path d="M46.2308 48.2625C45.8308 48.2625 45.4308 48.2625 45.0308 47.8625L26.6308 29.4625C25.8308 28.6625 25.8308 27.4625 26.6308 26.6625C27.4308 25.8625 28.6308 25.8625 29.4308 26.6625L47.8308 45.0625C48.6308 45.8625 48.6308 47.0625 47.8308 47.8625C47.4308 48.2625 47.0308 48.2625 46.2308 48.2625Z" fill="url(#paint2_linear_1127_27)"/>
    <path d="M27.8309 48.2625C28.2309 48.2625 28.6309 48.2625 29.0309 47.8625L47.4309 29.4625C48.2309 28.6625 48.2309 27.4625 47.4309 26.6625C46.6309 25.8625 45.4309 25.8625 44.6309 26.6625L26.2309 45.0625C25.4309 45.8625 25.4309 47.0625 26.2309 47.8625C27.0309 48.2625 27.4309 48.2625 27.8309 48.2625Z" fill="url(#paint3_linear_1127_27)"/>
    <path d="M20.6306 22.2625H2.23061C1.03061 22.2625 -0.169386 21.0625 0.630614 19.8625L9.83062 1.4625C10.6306 0.2625 12.6306 0.2625 13.0306 1.4625L22.2306 19.8625C22.6306 21.0625 21.8306 22.2625 20.6306 22.2625Z" fill="url(#paint4_linear_1127_27)"/>
  </mask>
  <g mask="url(#mask0_1127_27)">
    <rect x="-10.1875" y="-15.0859" width="68.8372" height="69.7674" fill="url(#paint5_linear_1127_27)"/>
  </g>
  <defs>
    <linearGradient id="paint0_linear_1127_27" x1="3.02777" y1="30.2744" x2="22.6015" y2="38.048" gradientUnits="userSpaceOnUse">
      <stop stop-color="#35A8E1"/>
      <stop offset="1" stop-color="#40D8AB"/>
    </linearGradient>
    <linearGradient id="paint1_linear_1127_27" x1="28.9773" y1="4.59551" x2="48.2015" y2="12.2304" gradientUnits="userSpaceOnUse">
      <stop stop-color="#35A8E1"/>
      <stop offset="1" stop-color="#40D8AB"/>
    </linearGradient>
    <linearGradient id="paint2_linear_1127_27" x1="28.8276" y1="30.4347" x2="48.3532" y2="38.2591" gradientUnits="userSpaceOnUse">
      <stop stop-color="#35A8E1"/>
      <stop offset="1" stop-color="#40D8AB"/>
    </linearGradient>
    <linearGradient id="paint3_linear_1127_27" x1="28.4277" y1="30.4347" x2="47.9533" y2="38.2591" gradientUnits="userSpaceOnUse">
      <stop stop-color="#35A8E1"/>
      <stop offset="1" stop-color="#40D8AB"/>
    </linearGradient>
    <linearGradient id="paint4_linear_1127_27" x1="3.11385" y1="4.83623" x2="22.2422" y2="12.5251" gradientUnits="userSpaceOnUse">
      <stop stop-color="#35A8E1"/>
      <stop offset="1" stop-color="#40D8AB"/>
    </linearGradient>
    <linearGradient id="paint5_linear_1127_27" x1="-10.1875" y1="27.2396" x2="70.2776" y2="25.8443" gradientUnits="userSpaceOnUse">
      <stop stop-color="#35A8E1"/>
      <stop offset="1" stop-color="#40D8A9"/>
    </linearGradient>
  </defs>
</svg>